<svg width="28" height="29" viewBox="0 0 28 29" fill="none" xmlns="http://www.w3.org/2000/svg">
<path d="M23.2 4.55859H4.8C4.3575 4.55859 4 4.91609 4 5.35859V23.7586C4 24.2011 4.3575 24.5586 4.8 24.5586H23.2C23.6425 24.5586 24 24.2011 24 23.7586V5.35859C24 4.91609 23.6425 4.55859 23.2 4.55859ZM20.89 10.3961H19.2925C18.04 10.3961 17.7975 10.9911 17.7975 11.8661V13.7936H20.7875L20.3975 16.8111H17.7975V24.5586H14.68V16.8136H12.0725V13.7936H14.68V11.5686C14.68 8.98609 16.2575 7.57859 18.5625 7.57859C19.6675 7.57859 20.615 7.66109 20.8925 7.69859V10.3961H20.89Z" fill="#D3A265"/>
</svg>
